<svg width="22" height="22" viewBox="0 0 22 22" fill="none" xmlns="http://www.w3.org/2000/svg">
<path fill-rule="evenodd" clip-rule="evenodd" d="M8.39788 14.8213C11.4443 17.2612 15.9035 17.0692 18.7275 14.2452C21.7575 11.2152 21.7575 6.30254 18.7275 3.27252C15.6975 0.242494 10.7848 0.242495 7.75481 3.27252C4.93084 6.09649 4.7388 10.5557 7.1787 13.6021L1.2525 19.5283C0.915833 19.865 0.915833 20.4108 1.2525 20.7475C1.58917 21.0842 2.13502 21.0842 2.47169 20.7475L8.39788 14.8213ZM17.5083 13.026C19.865 10.6693 19.865 6.84839 17.5083 4.4917C15.1516 2.13502 11.3307 2.13502 8.974 4.4917C6.61904 6.84666 6.61731 10.6637 8.96881 13.0208C8.97055 13.0225 8.97229 13.0243 8.97402 13.026C8.97575 13.0277 8.97747 13.0294 8.97918 13.0312C11.3363 15.3827 15.1533 15.381 17.5083 13.026Z" fill="#9B9B9B" stroke="#9B9B9B" stroke-linecap="round"/>
</svg>
